<svg width="132" height="20" viewBox="0 0 132 20" fill="none" xmlns="http://www.w3.org/2000/svg"> <g clip-path="url(#clip0_3_2)"> <mask id="mask0_3_2" style="mask-type:luminance" maskUnits="userSpaceOnUse" x="0" y="0" width="132" height="20"> <path d="M129 0H3C1.34315 0 0 1.34315 0 3V17C0 18.6569 1.34315 20 3 20H129C130.657 20 132 18.6569 132 17V3C132 1.34315 130.657 0 129 0Z" fill="white"/> </mask> <g mask="url(#mask0_3_2)"> <path d="M89 0H0V20H89V0Z" fill="#555555"/> <path d="M132 0H89V20H132V0Z" fill="#44CC11"/> <path d="M132 0H0V20H132V0Z" fill="url(#paint0_linear_3_2)"/> </g> <path d="M14.2456 9.00049L12.6826 15H11.748L10.2065 10.3755L8.67578 15H7.74658L6.16748 9.00049H7.22021L8.32129 13.6465L9.81982 9.00049H10.6523L12.1885 13.6465L13.2305 9.00049H14.2456ZM20.7231 12.105H16.3027C16.3027 12.4738 16.3582 12.7961 16.4692 13.0718C16.5802 13.3439 16.7324 13.5677 16.9258 13.7432C17.112 13.915 17.3322 14.0439 17.5864 14.1299C17.8442 14.2158 18.1271 14.2588 18.4351 14.2588C18.8433 14.2588 19.2533 14.1782 19.665 14.0171C20.0804 13.8524 20.3758 13.6912 20.5513 13.5337H20.605V14.6348C20.2648 14.778 19.9175 14.8979 19.563 14.9946C19.2085 15.0913 18.8361 15.1396 18.4458 15.1396C17.4504 15.1396 16.6733 14.8711 16.1147 14.334C15.5562 13.7933 15.2769 13.027 15.2769 12.0352C15.2769 11.054 15.5436 10.2752 16.0771 9.69873C16.6143 9.12223 17.3197 8.83398 18.1934 8.83398C19.0026 8.83398 19.6257 9.07031 20.0625 9.54297C20.5029 10.0156 20.7231 10.687 20.7231 11.5571V12.105ZM19.7402 11.3315C19.7367 10.8016 19.6024 10.3916 19.3374 10.1016C19.076 9.81152 18.6768 9.6665 18.1396 9.6665C17.599 9.6665 17.1675 9.82585 16.8452 10.1445C16.5265 10.4632 16.3457 10.8589 16.3027 11.3315H19.7402ZM27.5337 11.9546C27.5337 12.4559 27.4621 12.9071 27.3188 13.3081C27.1792 13.7091 26.9894 14.0457 26.7495 14.3179C26.4953 14.6007 26.216 14.8138 25.9116 14.957C25.6073 15.0967 25.2725 15.1665 24.9072 15.1665C24.5671 15.1665 24.2699 15.1253 24.0156 15.043C23.7614 14.9642 23.5107 14.8568 23.2637 14.7207L23.1992 15H22.2539V6.64258H23.2637V9.62891C23.5465 9.39616 23.8473 9.20638 24.166 9.05957C24.4847 8.90918 24.8428 8.83398 25.2402 8.83398C25.9492 8.83398 26.5078 9.10612 26.916 9.65039C27.3278 10.1947 27.5337 10.9627 27.5337 11.9546ZM26.4917 11.9814C26.4917 11.2653 26.3735 10.7228 26.1372 10.354C25.9009 9.98161 25.5195 9.79541 24.9932 9.79541C24.6995 9.79541 24.4023 9.85986 24.1016 9.98877C23.8008 10.1141 23.5215 10.277 23.2637 10.4775V13.915C23.5501 14.0439 23.7954 14.1335 23.9995 14.1836C24.2072 14.2337 24.4417 14.2588 24.7031 14.2588C25.2617 14.2588 25.6986 14.0762 26.0137 13.7109C26.3324 13.3421 26.4917 12.7656 26.4917 11.9814ZM33.3936 13.2705C33.3936 13.8184 33.1662 14.2677 32.7114 14.6187C32.2603 14.9696 31.6426 15.145 30.8584 15.145C30.4144 15.145 30.0062 15.0931 29.6338 14.9893C29.265 14.8818 28.9552 14.7655 28.7046 14.6401V13.5068H28.7583C29.077 13.7467 29.4315 13.9383 29.8218 14.0815C30.2121 14.2212 30.5863 14.291 30.9443 14.291C31.3883 14.291 31.7357 14.2194 31.9863 14.0762C32.237 13.9329 32.3623 13.7074 32.3623 13.3994C32.3623 13.1631 32.2943 12.984 32.1582 12.8623C32.0221 12.7406 31.7607 12.6367 31.374 12.5508C31.2308 12.5186 31.0428 12.481 30.8101 12.438C30.5809 12.395 30.3714 12.3485 30.1816 12.2983C29.6553 12.1587 29.2811 11.9546 29.0591 11.686C28.8407 11.4139 28.7314 11.0809 28.7314 10.687C28.7314 10.4399 28.7816 10.2072 28.8818 9.98877C28.9857 9.77035 29.1414 9.5752 29.3491 9.40332C29.5496 9.23503 29.8039 9.10254 30.1118 9.00586C30.4233 8.9056 30.7707 8.85547 31.1538 8.85547C31.5119 8.85547 31.8735 8.90023 32.2388 8.98975C32.6076 9.07568 32.9137 9.18132 33.1572 9.30664V10.3862H33.1035C32.8457 10.1965 32.5324 10.0371 32.1636 9.9082C31.7948 9.77572 31.4331 9.70947 31.0786 9.70947C30.7098 9.70947 30.3983 9.78109 30.144 9.92432C29.8898 10.064 29.7627 10.2734 29.7627 10.5527C29.7627 10.7998 29.8397 10.986 29.9937 11.1113C30.144 11.2367 30.3875 11.3387 30.7241 11.4175C30.9103 11.4604 31.118 11.5034 31.3472 11.5464C31.5799 11.5894 31.7733 11.6287 31.9272 11.6646C32.3963 11.772 32.758 11.9564 33.0122 12.2178C33.2664 12.4827 33.3936 12.8337 33.3936 13.2705ZM35.9287 7.99609H34.79V6.94873H35.9287V7.99609ZM35.8643 15H34.8545V9.00049H35.8643V15ZM40.9775 14.9463C40.7878 14.9964 40.5801 15.0376 40.3545 15.0698C40.1325 15.1021 39.9338 15.1182 39.7583 15.1182C39.146 15.1182 38.6805 14.9535 38.3618 14.624C38.0431 14.2946 37.8838 13.7664 37.8838 13.0396V9.84912H37.2017V9.00049H37.8838V7.27637H38.8936V9.00049H40.9775V9.84912H38.8936V12.583C38.8936 12.8981 38.9007 13.1452 38.915 13.3242C38.9294 13.4997 38.9795 13.6644 39.0654 13.8184C39.1442 13.9616 39.2516 14.0672 39.3877 14.1353C39.5273 14.1997 39.7386 14.2319 40.0215 14.2319C40.1862 14.2319 40.3581 14.2087 40.5371 14.1621C40.7161 14.112 40.8451 14.0708 40.9238 14.0386H40.9775V14.9463ZM47.2241 12.105H42.8037C42.8037 12.4738 42.8592 12.7961 42.9702 13.0718C43.0812 13.3439 43.2334 13.5677 43.4268 13.7432C43.613 13.915 43.8332 14.0439 44.0874 14.1299C44.3452 14.2158 44.6281 14.2588 44.936 14.2588C45.3442 14.2588 45.7542 14.1782 46.166 14.0171C46.5814 13.8524 46.8768 13.6912 47.0522 13.5337H47.106V14.6348C46.7658 14.778 46.4185 14.8979 46.064 14.9946C45.7095 15.0913 45.3371 15.1396 44.9468 15.1396C43.9513 15.1396 43.1743 14.8711 42.6157 14.334C42.0571 13.7933 41.7778 13.027 41.7778 12.0352C41.7778 11.054 42.0446 10.2752 42.5781 9.69873C43.1152 9.12223 43.8206 8.83398 44.6943 8.83398C45.5036 8.83398 46.1266 9.07031 46.5635 9.54297C47.0039 10.0156 47.2241 10.687 47.2241 11.5571V12.105ZM46.2412 11.3315C46.2376 10.8016 46.1034 10.3916 45.8384 10.1016C45.577 9.81152 45.1777 9.6665 44.6406 9.6665C44.0999 9.6665 43.6685 9.82585 43.3462 10.1445C43.0275 10.4632 42.8467 10.8589 42.8037 11.3315H46.2412ZM53.1914 14.624C52.8548 14.7852 52.5343 14.9105 52.23 15C51.9292 15.0895 51.6087 15.1343 51.2686 15.1343C50.8353 15.1343 50.4378 15.0716 50.0762 14.9463C49.7145 14.8174 49.4048 14.624 49.147 14.3662C48.8856 14.1084 48.6833 13.7826 48.54 13.3887C48.3968 12.9948 48.3252 12.5347 48.3252 12.0083C48.3252 11.0272 48.5938 10.2573 49.1309 9.69873C49.6715 9.14014 50.3841 8.86084 51.2686 8.86084C51.6123 8.86084 51.9489 8.90918 52.2783 9.00586C52.6113 9.10254 52.9157 9.2207 53.1914 9.36035V10.4829H53.1377C52.8298 10.243 52.5111 10.0586 52.1816 9.92969C51.8558 9.80078 51.5371 9.73633 51.2256 9.73633C50.6527 9.73633 50.1997 9.92969 49.8667 10.3164C49.5373 10.6995 49.3726 11.2635 49.3726 12.0083C49.3726 12.7316 49.5337 13.2884 49.856 13.6787C50.1818 14.0654 50.6383 14.2588 51.2256 14.2588C51.4297 14.2588 51.6374 14.2319 51.8486 14.1782C52.0599 14.1245 52.2497 14.0547 52.418 13.9688C52.5648 13.8936 52.7026 13.8148 52.8315 13.7324C52.9604 13.6465 53.0625 13.5731 53.1377 13.5122H53.1914V14.624ZM59.1533 15H58.1489V14.3608C58.0594 14.4217 57.9377 14.5076 57.7837 14.6187C57.6333 14.7261 57.4865 14.812 57.3433 14.8765C57.175 14.9588 56.9816 15.0269 56.7632 15.0806C56.5448 15.1379 56.2887 15.1665 55.9951 15.1665C55.4544 15.1665 54.9961 14.9875 54.6201 14.6294C54.2441 14.2713 54.0562 13.8148 54.0562 13.2598C54.0562 12.805 54.1528 12.438 54.3462 12.1587C54.5431 11.8758 54.8224 11.6538 55.1841 11.4927C55.5493 11.3315 55.988 11.2223 56.5 11.165C57.012 11.1077 57.5617 11.0648 58.1489 11.0361V10.8804C58.1489 10.6512 58.1077 10.4614 58.0254 10.311C57.9466 10.1606 57.832 10.0425 57.6816 9.95654C57.5384 9.87419 57.3665 9.81868 57.166 9.79004C56.9655 9.76139 56.756 9.74707 56.5376 9.74707C56.2726 9.74707 55.9772 9.78288 55.6514 9.85449C55.3255 9.92253 54.9889 10.0228 54.6416 10.1553H54.5879V9.12939C54.7848 9.07568 55.0695 9.0166 55.4419 8.95215C55.8143 8.8877 56.1813 8.85547 56.543 8.85547C56.9655 8.85547 57.3325 8.89128 57.644 8.96289C57.9591 9.03092 58.2313 9.14909 58.4604 9.31738C58.686 9.4821 58.8579 9.69515 58.9761 9.95654C59.0942 10.2179 59.1533 10.542 59.1533 10.9287V15ZM58.1489 13.5229V11.8525C57.841 11.8704 57.4775 11.8973 57.0586 11.9331C56.6432 11.9689 56.3138 12.0208 56.0703 12.0889C55.7803 12.1712 55.5457 12.3001 55.3667 12.4756C55.1877 12.6475 55.0981 12.8856 55.0981 13.1899C55.0981 13.5337 55.202 13.7933 55.4097 13.9688C55.6174 14.1406 55.9342 14.2266 56.3604 14.2266C56.7148 14.2266 57.0389 14.1585 57.3325 14.0225C57.6261 13.8828 57.8983 13.7163 58.1489 13.5229ZM64.8413 10.1016H64.7876C64.6372 10.0658 64.4904 10.0407 64.3472 10.0264C64.2075 10.0085 64.041 9.99951 63.8477 9.99951C63.5361 9.99951 63.2354 10.0693 62.9453 10.209C62.6553 10.3451 62.376 10.5223 62.1074 10.7407V15H61.0977V9.00049H62.1074V9.88672C62.5085 9.56445 62.8612 9.33708 63.1655 9.20459C63.4735 9.06852 63.7868 9.00049 64.1055 9.00049C64.2809 9.00049 64.408 9.00586 64.4868 9.0166C64.5656 9.02376 64.6838 9.03988 64.8413 9.06494V10.1016ZM71.0718 11.9546C71.0718 12.4559 71.0002 12.9071 70.8569 13.3081C70.7173 13.7091 70.5275 14.0457 70.2876 14.3179C70.0334 14.6007 69.7541 14.8138 69.4497 14.957C69.1453 15.0967 68.8105 15.1665 68.4453 15.1665C68.1051 15.1665 67.8079 15.1253 67.5537 15.043C67.2995 14.9642 67.0488 14.8568 66.8018 14.7207L66.7373 15H65.792V6.64258H66.8018V9.62891C67.0846 9.39616 67.3854 9.20638 67.7041 9.05957C68.0228 8.90918 68.3809 8.83398 68.7783 8.83398C69.4873 8.83398 70.0459 9.10612 70.4541 9.65039C70.8659 10.1947 71.0718 10.9627 71.0718 11.9546ZM70.0298 11.9814C70.0298 11.2653 69.9116 10.7228 69.6753 10.354C69.439 9.98161 69.0576 9.79541 68.5312 9.79541C68.2376 9.79541 67.9404 9.85986 67.6396 9.98877C67.3389 10.1141 67.0596 10.277 66.8018 10.4775V13.915C67.0882 14.0439 67.3335 14.1335 67.5376 14.1836C67.7453 14.2337 67.9798 14.2588 68.2412 14.2588C68.7998 14.2588 69.2367 14.0762 69.5518 13.7109C69.8704 13.3421 70.0298 12.7656 70.0298 11.9814ZM77.7588 12.0029C77.7588 12.9805 77.5081 13.7521 77.0068 14.3179C76.5055 14.8836 75.8341 15.1665 74.9927 15.1665C74.144 15.1665 73.4691 14.8836 72.9678 14.3179C72.4701 13.7521 72.2212 12.9805 72.2212 12.0029C72.2212 11.0254 72.4701 10.2537 72.9678 9.68799C73.4691 9.11865 74.144 8.83398 74.9927 8.83398C75.8341 8.83398 76.5055 9.11865 77.0068 9.68799C77.5081 10.2537 77.7588 11.0254 77.7588 12.0029ZM76.7168 12.0029C76.7168 11.2259 76.5646 10.6494 76.2603 10.2734C75.9559 9.89388 75.5334 9.7041 74.9927 9.7041C74.4448 9.7041 74.0187 9.89388 73.7144 10.2734C73.4136 10.6494 73.2632 11.2259 73.2632 12.0029C73.2632 12.7549 73.4154 13.326 73.7197 13.7163C74.0241 14.103 74.4484 14.2964 74.9927 14.2964C75.5298 14.2964 75.9505 14.1048 76.2549 13.7217C76.5628 13.335 76.7168 12.762 76.7168 12.0029ZM84.3438 15H83.334V11.584C83.334 11.3083 83.3179 11.0505 83.2856 10.8105C83.2534 10.5671 83.1943 10.3773 83.1084 10.2412C83.0189 10.0908 82.89 9.97982 82.7217 9.9082C82.5534 9.83301 82.335 9.79541 82.0664 9.79541C81.7907 9.79541 81.5024 9.86344 81.2017 9.99951C80.9009 10.1356 80.6126 10.3092 80.3369 10.5205V15H79.3271V9.00049H80.3369V9.6665C80.652 9.40511 80.9779 9.20101 81.3145 9.0542C81.651 8.90739 81.9966 8.83398 82.3511 8.83398C82.9992 8.83398 83.4933 9.02913 83.8335 9.41943C84.1737 9.80973 84.3438 10.3719 84.3438 11.106V15Z" fill="#010101" fill-opacity="0.3"/> <path d="M14.2456 8.00049L12.6826 14H11.748L10.2065 9.37549L8.67578 14H7.74658L6.16748 8.00049H7.22021L8.32129 12.6465L9.81982 8.00049H10.6523L12.1885 12.6465L13.2305 8.00049H14.2456ZM20.7231 11.105H16.3027C16.3027 11.4738 16.3582 11.7961 16.4692 12.0718C16.5802 12.3439 16.7324 12.5677 16.9258 12.7432C17.112 12.915 17.3322 13.0439 17.5864 13.1299C17.8442 13.2158 18.1271 13.2588 18.4351 13.2588C18.8433 13.2588 19.2533 13.1782 19.665 13.0171C20.0804 12.8524 20.3758 12.6912 20.5513 12.5337H20.605V13.6348C20.2648 13.778 19.9175 13.8979 19.563 13.9946C19.2085 14.0913 18.8361 14.1396 18.4458 14.1396C17.4504 14.1396 16.6733 13.8711 16.1147 13.334C15.5562 12.7933 15.2769 12.027 15.2769 11.0352C15.2769 10.054 15.5436 9.27523 16.0771 8.69873C16.6143 8.12223 17.3197 7.83398 18.1934 7.83398C19.0026 7.83398 19.6257 8.07031 20.0625 8.54297C20.5029 9.01562 20.7231 9.68701 20.7231 10.5571V11.105ZM19.7402 10.3315C19.7367 9.8016 19.6024 9.3916 19.3374 9.10156C19.076 8.81152 18.6768 8.6665 18.1396 8.6665C17.599 8.6665 17.1675 8.82585 16.8452 9.14453C16.5265 9.46322 16.3457 9.85889 16.3027 10.3315H19.7402ZM27.5337 10.9546C27.5337 11.4559 27.4621 11.9071 27.3188 12.3081C27.1792 12.7091 26.9894 13.0457 26.7495 13.3179C26.4953 13.6007 26.216 13.8138 25.9116 13.957C25.6073 14.0967 25.2725 14.1665 24.9072 14.1665C24.5671 14.1665 24.2699 14.1253 24.0156 14.043C23.7614 13.9642 23.5107 13.8568 23.2637 13.7207L23.1992 14H22.2539V5.64258H23.2637V8.62891C23.5465 8.39616 23.8473 8.20638 24.166 8.05957C24.4847 7.90918 24.8428 7.83398 25.2402 7.83398C25.9492 7.83398 26.5078 8.10612 26.916 8.65039C27.3278 9.19466 27.5337 9.96273 27.5337 10.9546ZM26.4917 10.9814C26.4917 10.2653 26.3735 9.72282 26.1372 9.354C25.9009 8.98161 25.5195 8.79541 24.9932 8.79541C24.6995 8.79541 24.4023 8.85986 24.1016 8.98877C23.8008 9.1141 23.5215 9.27702 23.2637 9.47754V12.915C23.5501 13.0439 23.7954 13.1335 23.9995 13.1836C24.2072 13.2337 24.4417 13.2588 24.7031 13.2588C25.2617 13.2588 25.6986 13.0762 26.0137 12.7109C26.3324 12.3421 26.4917 11.7656 26.4917 10.9814ZM33.3936 12.2705C33.3936 12.8184 33.1662 13.2677 32.7114 13.6187C32.2603 13.9696 31.6426 14.145 30.8584 14.145C30.4144 14.145 30.0062 14.0931 29.6338 13.9893C29.265 13.8818 28.9552 13.7655 28.7046 13.6401V12.5068H28.7583C29.077 12.7467 29.4315 12.9383 29.8218 13.0815C30.2121 13.2212 30.5863 13.291 30.9443 13.291C31.3883 13.291 31.7357 13.2194 31.9863 13.0762C32.237 12.9329 32.3623 12.7074 32.3623 12.3994C32.3623 12.1631 32.2943 11.984 32.1582 11.8623C32.0221 11.7406 31.7607 11.6367 31.374 11.5508C31.2308 11.5186 31.0428 11.481 30.8101 11.438C30.5809 11.395 30.3714 11.3485 30.1816 11.2983C29.6553 11.1587 29.2811 10.9546 29.0591 10.686C28.8407 10.4139 28.7314 10.0809 28.7314 9.68701C28.7314 9.43994 28.7816 9.20719 28.8818 8.98877C28.9857 8.77035 29.1414 8.5752 29.3491 8.40332C29.5496 8.23503 29.8039 8.10254 30.1118 8.00586C30.4233 7.9056 30.7707 7.85547 31.1538 7.85547C31.5119 7.85547 31.8735 7.90023 32.2388 7.98975C32.6076 8.07568 32.9137 8.18132 33.1572 8.30664V9.38623H33.1035C32.8457 9.19645 32.5324 9.03711 32.1636 8.9082C31.7948 8.77572 31.4331 8.70947 31.0786 8.70947C30.7098 8.70947 30.3983 8.78109 30.144 8.92432C29.8898 9.06396 29.7627 9.27344 29.7627 9.55273C29.7627 9.7998 29.8397 9.986 29.9937 10.1113C30.144 10.2367 30.3875 10.3387 30.7241 10.4175C30.9103 10.4604 31.118 10.5034 31.3472 10.5464C31.5799 10.5894 31.7733 10.6287 31.9272 10.6646C32.3963 10.772 32.758 10.9564 33.0122 11.2178C33.2664 11.4827 33.3936 11.8337 33.3936 12.2705ZM35.9287 6.99609H34.79V5.94873H35.9287V6.99609ZM35.8643 14H34.8545V8.00049H35.8643V14ZM40.9775 13.9463C40.7878 13.9964 40.5801 14.0376 40.3545 14.0698C40.1325 14.1021 39.9338 14.1182 39.7583 14.1182C39.146 14.1182 38.6805 13.9535 38.3618 13.624C38.0431 13.2946 37.8838 12.7664 37.8838 12.0396V8.84912H37.2017V8.00049H37.8838V6.27637H38.8936V8.00049H40.9775V8.84912H38.8936V11.583C38.8936 11.8981 38.9007 12.1452 38.915 12.3242C38.9294 12.4997 38.9795 12.6644 39.0654 12.8184C39.1442 12.9616 39.2516 13.0672 39.3877 13.1353C39.5273 13.1997 39.7386 13.2319 40.0215 13.2319C40.1862 13.2319 40.3581 13.2087 40.5371 13.1621C40.7161 13.112 40.8451 13.0708 40.9238 13.0386H40.9775V13.9463ZM47.2241 11.105H42.8037C42.8037 11.4738 42.8592 11.7961 42.9702 12.0718C43.0812 12.3439 43.2334 12.5677 43.4268 12.7432C43.613 12.915 43.8332 13.0439 44.0874 13.1299C44.3452 13.2158 44.6281 13.2588 44.936 13.2588C45.3442 13.2588 45.7542 13.1782 46.166 13.0171C46.5814 12.8524 46.8768 12.6912 47.0522 12.5337H47.106V13.6348C46.7658 13.778 46.4185 13.8979 46.064 13.9946C45.7095 14.0913 45.3371 14.1396 44.9468 14.1396C43.9513 14.1396 43.1743 13.8711 42.6157 13.334C42.0571 12.7933 41.7778 12.027 41.7778 11.0352C41.7778 10.054 42.0446 9.27523 42.5781 8.69873C43.1152 8.12223 43.8206 7.83398 44.6943 7.83398C45.5036 7.83398 46.1266 8.07031 46.5635 8.54297C47.0039 9.01562 47.2241 9.68701 47.2241 10.5571V11.105ZM46.2412 10.3315C46.2376 9.8016 46.1034 9.3916 45.8384 9.10156C45.577 8.81152 45.1777 8.6665 44.6406 8.6665C44.0999 8.6665 43.6685 8.82585 43.3462 9.14453C43.0275 9.46322 42.8467 9.85889 42.8037 10.3315H46.2412ZM53.1914 13.624C52.8548 13.7852 52.5343 13.9105 52.23 14C51.9292 14.0895 51.6087 14.1343 51.2686 14.1343C50.8353 14.1343 50.4378 14.0716 50.0762 13.9463C49.7145 13.8174 49.4048 13.624 49.147 13.3662C48.8856 13.1084 48.6833 12.7826 48.54 12.3887C48.3968 11.9948 48.3252 11.5347 48.3252 11.0083C48.3252 10.0272 48.5938 9.25732 49.1309 8.69873C49.6715 8.14014 50.3841 7.86084 51.2686 7.86084C51.6123 7.86084 51.9489 7.90918 52.2783 8.00586C52.6113 8.10254 52.9157 8.2207 53.1914 8.36035V9.48291H53.1377C52.8298 9.243 52.5111 9.05859 52.1816 8.92969C51.8558 8.80078 51.5371 8.73633 51.2256 8.73633C50.6527 8.73633 50.1997 8.92969 49.8667 9.31641C49.5373 9.69954 49.3726 10.2635 49.3726 11.0083C49.3726 11.7316 49.5337 12.2884 49.856 12.6787C50.1818 13.0654 50.6383 13.2588 51.2256 13.2588C51.4297 13.2588 51.6374 13.2319 51.8486 13.1782C52.0599 13.1245 52.2497 13.0547 52.418 12.9688C52.5648 12.8936 52.7026 12.8148 52.8315 12.7324C52.9604 12.6465 53.0625 12.5731 53.1377 12.5122H53.1914V13.624ZM59.1533 14H58.1489V13.3608C58.0594 13.4217 57.9377 13.5076 57.7837 13.6187C57.6333 13.7261 57.4865 13.812 57.3433 13.8765C57.175 13.9588 56.9816 14.0269 56.7632 14.0806C56.5448 14.1379 56.2887 14.1665 55.9951 14.1665C55.4544 14.1665 54.9961 13.9875 54.6201 13.6294C54.2441 13.2713 54.0562 12.8148 54.0562 12.2598C54.0562 11.805 54.1528 11.438 54.3462 11.1587C54.5431 10.8758 54.8224 10.6538 55.1841 10.4927C55.5493 10.3315 55.988 10.2223 56.5 10.165C57.012 10.1077 57.5617 10.0648 58.1489 10.0361V9.88037C58.1489 9.6512 58.1077 9.46143 58.0254 9.31104C57.9466 9.16064 57.832 9.04248 57.6816 8.95654C57.5384 8.87419 57.3665 8.81868 57.166 8.79004C56.9655 8.76139 56.756 8.74707 56.5376 8.74707C56.2726 8.74707 55.9772 8.78288 55.6514 8.85449C55.3255 8.92253 54.9889 9.02279 54.6416 9.15527H54.5879V8.12939C54.7848 8.07568 55.0695 8.0166 55.4419 7.95215C55.8143 7.8877 56.1813 7.85547 56.543 7.85547C56.9655 7.85547 57.3325 7.89128 57.644 7.96289C57.9591 8.03092 58.2313 8.14909 58.4604 8.31738C58.686 8.4821 58.8579 8.69515 58.9761 8.95654C59.0942 9.21794 59.1533 9.54199 59.1533 9.92871V14ZM58.1489 12.5229V10.8525C57.841 10.8704 57.4775 10.8973 57.0586 10.9331C56.6432 10.9689 56.3138 11.0208 56.0703 11.0889C55.7803 11.1712 55.5457 11.3001 55.3667 11.4756C55.1877 11.6475 55.0981 11.8856 55.0981 12.1899C55.0981 12.5337 55.202 12.7933 55.4097 12.9688C55.6174 13.1406 55.9342 13.2266 56.3604 13.2266C56.7148 13.2266 57.0389 13.1585 57.3325 13.0225C57.6261 12.8828 57.8983 12.7163 58.1489 12.5229ZM64.8413 9.10156H64.7876C64.6372 9.06576 64.4904 9.04069 64.3472 9.02637C64.2075 9.00846 64.041 8.99951 63.8477 8.99951C63.5361 8.99951 63.2354 9.06934 62.9453 9.20898C62.6553 9.34505 62.376 9.5223 62.1074 9.74072V14H61.0977V8.00049H62.1074V8.88672C62.5085 8.56445 62.8612 8.33708 63.1655 8.20459C63.4735 8.06852 63.7868 8.00049 64.1055 8.00049C64.2809 8.00049 64.408 8.00586 64.4868 8.0166C64.5656 8.02376 64.6838 8.03988 64.8413 8.06494V9.10156ZM71.0718 10.9546C71.0718 11.4559 71.0002 11.9071 70.8569 12.3081C70.7173 12.7091 70.5275 13.0457 70.2876 13.3179C70.0334 13.6007 69.7541 13.8138 69.4497 13.957C69.1453 14.0967 68.8105 14.1665 68.4453 14.1665C68.1051 14.1665 67.8079 14.1253 67.5537 14.043C67.2995 13.9642 67.0488 13.8568 66.8018 13.7207L66.7373 14H65.792V5.64258H66.8018V8.62891C67.0846 8.39616 67.3854 8.20638 67.7041 8.05957C68.0228 7.90918 68.3809 7.83398 68.7783 7.83398C69.4873 7.83398 70.0459 8.10612 70.4541 8.65039C70.8659 9.19466 71.0718 9.96273 71.0718 10.9546ZM70.0298 10.9814C70.0298 10.2653 69.9116 9.72282 69.6753 9.354C69.439 8.98161 69.0576 8.79541 68.5312 8.79541C68.2376 8.79541 67.9404 8.85986 67.6396 8.98877C67.3389 9.1141 67.0596 9.27702 66.8018 9.47754V12.915C67.0882 13.0439 67.3335 13.1335 67.5376 13.1836C67.7453 13.2337 67.9798 13.2588 68.2412 13.2588C68.7998 13.2588 69.2367 13.0762 69.5518 12.7109C69.8704 12.3421 70.0298 11.7656 70.0298 10.9814ZM77.7588 11.0029C77.7588 11.9805 77.5081 12.7521 77.0068 13.3179C76.5055 13.8836 75.8341 14.1665 74.9927 14.1665C74.144 14.1665 73.4691 13.8836 72.9678 13.3179C72.4701 12.7521 72.2212 11.9805 72.2212 11.0029C72.2212 10.0254 72.4701 9.25374 72.9678 8.68799C73.4691 8.11865 74.144 7.83398 74.9927 7.83398C75.8341 7.83398 76.5055 8.11865 77.0068 8.68799C77.5081 9.25374 77.7588 10.0254 77.7588 11.0029ZM76.7168 11.0029C76.7168 10.2259 76.5646 9.64941 76.2603 9.27344C75.9559 8.89388 75.5334 8.7041 74.9927 8.7041C74.4448 8.7041 74.0187 8.89388 73.7144 9.27344C73.4136 9.64941 73.2632 10.2259 73.2632 11.0029C73.2632 11.7549 73.4154 12.326 73.7197 12.7163C74.0241 13.103 74.4484 13.2964 74.9927 13.2964C75.5298 13.2964 75.9505 13.1048 76.2549 12.7217C76.5628 12.335 76.7168 11.762 76.7168 11.0029ZM84.3438 14H83.334V10.584C83.334 10.3083 83.3179 10.0505 83.2856 9.81055C83.2534 9.56706 83.1943 9.37728 83.1084 9.24121C83.0189 9.09082 82.89 8.97982 82.7217 8.9082C82.5534 8.83301 82.335 8.79541 82.0664 8.79541C81.7907 8.79541 81.5024 8.86344 81.2017 8.99951C80.9009 9.13558 80.6126 9.30924 80.3369 9.52051V14H79.3271V8.00049H80.3369V8.6665C80.652 8.40511 80.9779 8.20101 81.3145 8.0542C81.651 7.90739 81.9966 7.83398 82.3511 7.83398C82.9992 7.83398 83.4933 8.02913 83.8335 8.41943C84.1737 8.80973 84.3438 9.37191 84.3438 10.106V14Z" fill="white"/> <path d="M99.8481 10.9985C99.8481 12.4344 99.6226 13.4889 99.1714 14.1621C98.7238 14.8317 98.0273 15.1665 97.082 15.1665C96.1224 15.1665 95.4206 14.8263 94.9766 14.146C94.5361 13.4657 94.3159 12.4201 94.3159 11.0093C94.3159 9.58773 94.5397 8.53857 94.9873 7.86182C95.4349 7.18148 96.1331 6.84131 97.082 6.84131C98.0417 6.84131 98.7417 7.18685 99.1821 7.87793C99.6261 8.56543 99.8481 9.60563 99.8481 10.9985ZM98.4355 13.437C98.5609 13.147 98.645 12.8068 98.688 12.4165C98.7345 12.0226 98.7578 11.55 98.7578 10.9985C98.7578 10.4543 98.7345 9.98161 98.688 9.58057C98.645 9.17952 98.5591 8.83936 98.4302 8.56006C98.3049 8.28434 98.133 8.07666 97.9146 7.93701C97.6997 7.79736 97.4222 7.72754 97.082 7.72754C96.7454 7.72754 96.4661 7.79736 96.2441 7.93701C96.0257 8.07666 95.8521 8.28792 95.7231 8.5708C95.6014 8.83577 95.5173 9.18132 95.4707 9.60742C95.4277 10.0335 95.4062 10.5008 95.4062 11.0093C95.4062 11.5679 95.4259 12.0352 95.4653 12.4111C95.5047 12.7871 95.5889 13.1237 95.7178 13.4209C95.8359 13.7002 96.0024 13.9132 96.2173 14.0601C96.4357 14.2069 96.724 14.2803 97.082 14.2803C97.4186 14.2803 97.6979 14.2104 97.9199 14.0708C98.1419 13.9312 98.3138 13.7199 98.4355 13.437ZM103.216 15H101.932V13.4692H103.216V15ZM110.848 10.9985C110.848 12.4344 110.623 13.4889 110.171 14.1621C109.724 14.8317 109.027 15.1665 108.082 15.1665C107.122 15.1665 106.421 14.8263 105.977 14.146C105.536 13.4657 105.316 12.4201 105.316 11.0093C105.316 9.58773 105.54 8.53857 105.987 7.86182C106.435 7.18148 107.133 6.84131 108.082 6.84131C109.042 6.84131 109.742 7.18685 110.182 7.87793C110.626 8.56543 110.848 9.60563 110.848 10.9985ZM109.436 13.437C109.561 13.147 109.645 12.8068 109.688 12.4165C109.735 12.0226 109.758 11.55 109.758 10.9985C109.758 10.4543 109.735 9.98161 109.688 9.58057C109.645 9.17952 109.559 8.83936 109.43 8.56006C109.305 8.28434 109.133 8.07666 108.915 7.93701C108.7 7.79736 108.422 7.72754 108.082 7.72754C107.745 7.72754 107.466 7.79736 107.244 7.93701C107.026 8.07666 106.852 8.28792 106.723 8.5708C106.601 8.83577 106.517 9.18132 106.471 9.60742C106.428 10.0335 106.406 10.5008 106.406 11.0093C106.406 11.5679 106.426 12.0352 106.465 12.4111C106.505 12.7871 106.589 13.1237 106.718 13.4209C106.836 13.7002 107.002 13.9132 107.217 14.0601C107.436 14.2069 107.724 14.2803 108.082 14.2803C108.419 14.2803 108.698 14.2104 108.92 14.0708C109.142 13.9312 109.314 13.7199 109.436 13.437ZM118.035 12.7495H116.848V15H115.816V12.7495H111.987V11.5142L115.859 7.00244H116.848V11.8901H118.035V12.7495ZM115.816 11.8901V8.28076L112.717 11.8901H115.816ZM124.426 14.3179C124.426 15.3348 124.195 16.0814 123.733 16.5576C123.271 17.0339 122.561 17.272 121.601 17.272C121.282 17.272 120.971 17.2487 120.667 17.2021C120.366 17.1592 120.069 17.0965 119.775 17.0142V15.9829H119.829C119.993 16.0474 120.255 16.1261 120.613 16.2192C120.971 16.3159 121.329 16.3643 121.687 16.3643C122.031 16.3643 122.315 16.3231 122.541 16.2407C122.767 16.1584 122.942 16.0438 123.067 15.897C123.193 15.7573 123.282 15.589 123.336 15.3921C123.39 15.1951 123.417 14.9749 123.417 14.7314V14.1836C123.112 14.4271 122.82 14.6097 122.541 14.7314C122.265 14.8496 121.913 14.9087 121.483 14.9087C120.767 14.9087 120.197 14.6509 119.775 14.1353C119.356 13.616 119.146 12.8856 119.146 11.9438C119.146 11.4282 119.218 10.9842 119.361 10.6118C119.508 10.2358 119.707 9.91178 119.958 9.63965C120.19 9.38542 120.473 9.18848 120.806 9.04883C121.139 8.9056 121.47 8.83398 121.8 8.83398C122.147 8.83398 122.437 8.86979 122.67 8.94141C122.906 9.00944 123.155 9.11507 123.417 9.2583L123.481 9.00049H124.426V14.3179ZM123.417 13.3511V10.0801C123.148 9.95833 122.897 9.8724 122.665 9.82227C122.435 9.76855 122.206 9.7417 121.977 9.7417C121.422 9.7417 120.985 9.9279 120.667 10.3003C120.348 10.6727 120.188 11.2134 120.188 11.9224C120.188 12.5955 120.307 13.1058 120.543 13.4531C120.779 13.8005 121.171 13.9741 121.719 13.9741C122.013 13.9741 122.306 13.9186 122.6 13.8076C122.897 13.693 123.169 13.5409 123.417 13.3511Z" fill="#010101" fill-opacity="0.3"/> <path d="M99.8481 9.99854C99.8481 11.4344 99.6226 12.4889 99.1714 13.1621C98.7238 13.8317 98.0273 14.1665 97.082 14.1665C96.1224 14.1665 95.4206 13.8263 94.9766 13.146C94.5361 12.4657 94.3159 11.4201 94.3159 10.0093C94.3159 8.58773 94.5397 7.53857 94.9873 6.86182C95.4349 6.18148 96.1331 5.84131 97.082 5.84131C98.0417 5.84131 98.7417 6.18685 99.1821 6.87793C99.6261 7.56543 99.8481 8.60563 99.8481 9.99854ZM98.4355 12.437C98.5609 12.147 98.645 11.8068 98.688 11.4165C98.7345 11.0226 98.7578 10.55 98.7578 9.99854C98.7578 9.45426 98.7345 8.98161 98.688 8.58057C98.645 8.17952 98.5591 7.83936 98.4302 7.56006C98.3049 7.28434 98.133 7.07666 97.9146 6.93701C97.6997 6.79736 97.4222 6.72754 97.082 6.72754C96.7454 6.72754 96.4661 6.79736 96.2441 6.93701C96.0257 7.07666 95.8521 7.28792 95.7231 7.5708C95.6014 7.83577 95.5173 8.18132 95.4707 8.60742C95.4277 9.03353 95.4062 9.50081 95.4062 10.0093C95.4062 10.5679 95.4259 11.0352 95.4653 11.4111C95.5047 11.7871 95.5889 12.1237 95.7178 12.4209C95.8359 12.7002 96.0024 12.9132 96.2173 13.0601C96.4357 13.2069 96.724 13.2803 97.082 13.2803C97.4186 13.2803 97.6979 13.2104 97.9199 13.0708C98.1419 12.9312 98.3138 12.7199 98.4355 12.437ZM103.216 14H101.932V12.4692H103.216V14ZM110.848 9.99854C110.848 11.4344 110.623 12.4889 110.171 13.1621C109.724 13.8317 109.027 14.1665 108.082 14.1665C107.122 14.1665 106.421 13.8263 105.977 13.146C105.536 12.4657 105.316 11.4201 105.316 10.0093C105.316 8.58773 105.54 7.53857 105.987 6.86182C106.435 6.18148 107.133 5.84131 108.082 5.84131C109.042 5.84131 109.742 6.18685 110.182 6.87793C110.626 7.56543 110.848 8.60563 110.848 9.99854ZM109.436 12.437C109.561 12.147 109.645 11.8068 109.688 11.4165C109.735 11.0226 109.758 10.55 109.758 9.99854C109.758 9.45426 109.735 8.98161 109.688 8.58057C109.645 8.17952 109.559 7.83936 109.43 7.56006C109.305 7.28434 109.133 7.07666 108.915 6.93701C108.7 6.79736 108.422 6.72754 108.082 6.72754C107.745 6.72754 107.466 6.79736 107.244 6.93701C107.026 7.07666 106.852 7.28792 106.723 7.5708C106.601 7.83577 106.517 8.18132 106.471 8.60742C106.428 9.03353 106.406 9.50081 106.406 10.0093C106.406 10.5679 106.426 11.0352 106.465 11.4111C106.505 11.7871 106.589 12.1237 106.718 12.4209C106.836 12.7002 107.002 12.9132 107.217 13.0601C107.436 13.2069 107.724 13.2803 108.082 13.2803C108.419 13.2803 108.698 13.2104 108.92 13.0708C109.142 12.9312 109.314 12.7199 109.436 12.437ZM118.035 11.7495H116.848V14H115.816V11.7495H111.987V10.5142L115.859 6.00244H116.848V10.8901H118.035V11.7495ZM115.816 10.8901V7.28076L112.717 10.8901H115.816ZM124.426 13.3179C124.426 14.3348 124.195 15.0814 123.733 15.5576C123.271 16.0339 122.561 16.272 121.601 16.272C121.282 16.272 120.971 16.2487 120.667 16.2021C120.366 16.1592 120.069 16.0965 119.775 16.0142V14.9829H119.829C119.993 15.0474 120.255 15.1261 120.613 15.2192C120.971 15.3159 121.329 15.3643 121.687 15.3643C122.031 15.3643 122.315 15.3231 122.541 15.2407C122.767 15.1584 122.942 15.0438 123.067 14.897C123.193 14.7573 123.282 14.589 123.336 14.3921C123.39 14.1951 123.417 13.9749 123.417 13.7314V13.1836C123.112 13.4271 122.82 13.6097 122.541 13.7314C122.265 13.8496 121.913 13.9087 121.483 13.9087C120.767 13.9087 120.197 13.6509 119.775 13.1353C119.356 12.616 119.146 11.8856 119.146 10.9438C119.146 10.4282 119.218 9.98421 119.361 9.61182C119.508 9.23584 119.707 8.91178 119.958 8.63965C120.19 8.38542 120.473 8.18848 120.806 8.04883C121.139 7.9056 121.47 7.83398 121.8 7.83398C122.147 7.83398 122.437 7.86979 122.67 7.94141C122.906 8.00944 123.155 8.11507 123.417 8.2583L123.481 8.00049H124.426V13.3179ZM123.417 12.3511V9.08008C123.148 8.95833 122.897 8.8724 122.665 8.82227C122.435 8.76855 122.206 8.7417 121.977 8.7417C121.422 8.7417 120.985 8.9279 120.667 9.30029C120.348 9.67269 120.188 10.2134 120.188 10.9224C120.188 11.5955 120.307 12.1058 120.543 12.4531C120.779 12.8005 121.171 12.9741 121.719 12.9741C122.013 12.9741 122.306 12.9186 122.6 12.8076C122.897 12.693 123.169 12.5409 123.417 12.3511Z" fill="white"/> </g> <defs> <linearGradient id="paint0_linear_3_2" x1="0" y1="0" x2="0" y2="400" gradientUnits="userSpaceOnUse"> <stop stop-color="#BBBBBB" stop-opacity="0.1"/> <stop offset="1" stop-opacity="0.1"/> </linearGradient> <clipPath id="clip0_3_2"> <rect width="132" height="20" fill="white"/> </clipPath> </defs> </svg>